HIERARCHY
ROOT Hips
{
 OFFSET 0.000000 0.000000 0.000000
 CHANNELS 6 Xposition Yposition Zposition Yrotation Xrotation Zrotation
 JOINT Chest
 {
  OFFSET 0.000000 10.354800 0.006500
  CHANNELS 3 Yrotation Xrotation Zrotation
  JOINT Chest2
  {
   OFFSET 0.000000 10.435800 -0.013200
   CHANNELS 3 Yrotation Xrotation Zrotation
   JOINT Chest3
   {
    OFFSET 0.000000 10.393700 0.000000
    CHANNELS 3 Yrotation Xrotation Zrotation
    JOINT Chest4
    {
     OFFSET 0.000000 10.383100 0.000000
     CHANNELS 3 Yrotation Xrotation Zrotation
     JOINT Neck
     {
      OFFSET 0.000000 15.694000 0.000000
      CHANNELS 3 Yrotation Xrotation Zrotation
      JOINT Head
      {
       OFFSET 0.000000 9.711000 -0.028000
       CHANNELS 3 Yrotation Xrotation Zrotation
       End Site
       {
        OFFSET 0.000000 18.578700 -0.014800
       }
      }
     }
     JOINT RightCollar
     {
      OFFSET -3.157200 10.367500 0.000000
      CHANNELS 3 Yrotation Xrotation Zrotation
      JOINT RightShoulder
      {
       OFFSET -14.482500 0.000000 0.000000
       CHANNELS 3 Yrotation Xrotation Zrotation
       JOINT RightElbow
       {
        OFFSET 0.000000 -31.707800 0.000000
        CHANNELS 3 Yrotation Xrotation Zrotation
        JOINT RightWrist
        {
         OFFSET 0.000000 -25.659300 0.000000
         CHANNELS 3 Yrotation Xrotation Zrotation
         End Site
         {
          OFFSET 0.000000 -18.994300 0.000000
         }
        }
       }
      }
     }
     JOINT LeftCollar
     {
      OFFSET 3.157200 10.367500 0.000000
      CHANNELS 3 Yrotation Xrotation Zrotation
      JOINT LeftShoulder
      {
       OFFSET 14.482500 0.000000 0.000000
       CHANNELS 3 Yrotation Xrotation Zrotation
       JOINT LeftElbow
       {
        OFFSET 0.000000 -31.707800 0.000000
        CHANNELS 3 Yrotation Xrotation Zrotation
        JOINT LeftWrist
        {
         OFFSET 0.000000 -25.659300 0.000000
         CHANNELS 3 Yrotation Xrotation Zrotation
         End Site
         {
          OFFSET 0.000000 -18.994300 0.000000
         }
        }
       }
      }
     }
    }
   }
  }
 }
 JOINT RightHip
 {
  OFFSET -8.365600 -0.032100 -0.003200
  CHANNELS 3 Yrotation Xrotation Zrotation
  JOINT RightKnee
  {
   OFFSET 0.000000 -43.980000 0.003100
   CHANNELS 3 Yrotation Xrotation Zrotation
   JOINT RightAnkle
   {
    OFFSET 0.000000 -42.882800 0.005200
    CHANNELS 3 Yrotation Xrotation Zrotation
    JOINT RightToe
    {
     OFFSET 0.000000 -4.915500 10.826300
     CHANNELS 3 Yrotation Xrotation Zrotation
     End Site
     {
      OFFSET 0.000000 -1.517500 6.175900
     }
    }
   }
  }
 }
 JOINT LeftHip
 {
  OFFSET 8.365600 -0.032100 -0.003200
  CHANNELS 3 Yrotation Xrotation Zrotation
  JOINT LeftKnee
  {
   OFFSET 0.000000 -43.980000 0.003100
   CHANNELS 3 Yrotation Xrotation Zrotation
   JOINT LeftAnkle
   {
    OFFSET 0.000000 -42.882800 0.005200
    CHANNELS 3 Yrotation Xrotation Zrotation
    JOINT LeftToe
    {
     OFFSET 0.000000 -4.915500 10.826300
     CHANNELS 3 Yrotation Xrotation Zrotation
     End Site
     {
      OFFSET 0.000000 -1.517500 6.175900
     }
    }
   }
  }
 }
}
MOTION
Frames: 15
Frame Time: 0.008333
-0.531452 127.100828 27.340176 174.425151 -31.525172 -4.020244 2.170312 18.658140 0.986661 0.228528 2.162303 0.078254 0.378395 3.579264 0.136440 1.863440 16.224078 0.785894 0.416502 24.654114 -5.793553 1.782641 1.210420 -6.457732 3.795063 3.480188 -2.552856 18.167961 -16.542495 -5.673763 46.552747 -36.756147 -36.778041 -5.184922 -5.594474 -26.368346 -4.812141 7.574305 0.785482 -18.846676 -35.317585 8.670390 -40.395410 -23.504477 31.499905 -9.071473 8.050639 15.141431 3.810361 -42.515214 0.174533 -151.939184 70.284351 -145.530319 -2.421555 -30.638398 0.753196 -0.000046 -0.006565 -0.000021 -7.136193 -40.372119 6.580095 163.495433 73.290740 159.773233 -3.180747 -32.901171 1.008701 0.019129 0.004774 0.008686
-0.532929 127.098507 27.334724 174.434956 -31.477717 -4.013325 2.157538 18.617086 0.970783 0.231727 2.164078 0.075259 0.403822 3.578537 0.119196 1.855686 16.200086 0.790792 0.416552 24.650530 -5.771375 1.790288 1.162970 -6.450923 3.795630 3.477228 -2.552684 18.154263 -16.516311 -5.665250 46.549048 -36.765409 -36.749868 -5.187695 -5.605668 -26.388424 -4.813995 7.593216 0.788172 -18.791836 -35.274360 8.634817 -40.392576 -23.581885 31.486874 -9.037339 7.979634 15.204160 3.815589 -42.558408 0.156705 -151.957562 70.283927 -145.549873 -2.430033 -30.644142 0.758728 -0.001939 -0.007965 -0.000880 -7.144873 -40.435050 6.524370 163.472187 73.283794 159.762608 -3.153039 -32.861900 1.025327 0.015075 0.005208 0.006845
-0.533402 127.097806 27.327054 174.439573 -31.448765 -4.006996 2.170509 18.608175 0.961995 0.231828 2.157260 0.074161 0.392681 3.567821 0.121133 1.864602 16.184771 0.773406 0.428816 24.625160 -5.756183 1.796081 1.138350 -6.439306 3.797303 3.477454 -2.546978 18.166664 -16.466523 -5.671012 46.525080 -36.806799 -36.760785 -5.182907 -5.607179 -26.393729 -4.804835 7.612649 0.789652 -18.745592 -35.233799 8.617703 -40.401442 -23.652519 31.472330 -9.056025 7.944828 15.237059 3.821789 -42.582723 0.143999 -151.953374 70.283317 -145.544174 -2.430609 -30.646610 0.759161 -0.001940 -0.010612 -0.000881 -7.146420 -40.478069 6.473762 163.380895 73.267136 159.677508 -3.131790 -32.839598 1.027352 0.007733 0.000741 0.003511
-0.532862 127.097301 27.319676 174.449302 -31.422554 -4.007944 2.175974 18.603625 0.954638 0.240673 2.162459 0.062327 0.377301 3.544606 0.135222 1.874605 16.171681 0.755410 0.455677 24.586304 -5.767519 1.794660 1.137404 -6.398594 3.800807 3.478162 -2.539963 18.153546 -16.448502 -5.651894 46.536265 -36.796768 -36.744436 -5.197256 -5.622286 -26.429097 -4.796724 7.628160 0.803136 -18.685278 -35.204232 8.593167 -40.420475 -23.714212 31.451743 -9.071840 7.909895 15.263732 3.823744 -42.594148 0.136103 -151.927514 70.286230 -145.513669 -2.425913 -30.656750 0.760009 -0.002418 -0.007523 -0.001098 -7.158666 -40.518537 6.431438 163.378216 73.267061 159.687660 -3.079271 -32.811182 1.012454 0.006532 -0.002713 0.002966
-0.532111 127.092866 27.319489 174.454806 -31.355499 -4.010490 2.193612 18.577790 0.940306 0.218471 2.124896 0.078990 0.398813 3.554769 0.113763 1.876918 16.152054 0.760747 0.467179 24.575999 -5.761884 1.805928 1.115667 -6.388600 3.798915 3.478016 -2.528921 18.137381 -16.443912 -5.635295 46.557343 -36.762440 -36.691562 -5.220312 -5.647983 -26.496164 -4.781174 7.641994 0.812389 -18.640538 -35.189683 8.575690 -40.456611 -23.756312 31.435729 -9.028169 7.864944 15.299321 3.826207 -42.654531 0.128416 -151.925377 70.283977 -145.505905 -2.423000 -30.667171 0.760400 -0.003602 -0.004086 -0.001635 -7.178284 -40.598458 6.403525 163.406076 73.271298 159.741538 -3.022173 -32.789861 0.980331 0.012642 0.000312 0.005740
-0.532430 127.091020 27.315425 174.460083 -31.318501 -4.003640 2.191051 18.552297 0.927492 0.225776 2.130136 0.073376 0.406477 3.553268 0.111215 1.869338 16.136122 0.764731 0.483427 24.569996 -5.772586 1.812229 1.094864 -6.383266 3.795004 3.477219 -2.521306 18.146607 -16.416255 -5.632441 46.564489 -36.764723 -36.695063 -5.229132 -5.656055 -26.522557 -4.753438 7.656044 0.803896 -18.617034 -35.193393 8.566544 -40.511180 -23.770421 31.432748 -8.957081 7.803694 15.359538 3.833365 -42.687509 0.111626 -151.923942 70.278274 -145.502033 -2.420978 -30.669938 0.753841 -0.003930 -0.004842 -0.001784 -7.182903 -40.646917 6.368885 163.353622 73.260977 159.697824 -3.012527 -32.773319 0.975393 0.009450 -0.000747 0.004290
-0.533310 127.088910 27.312500 174.469006 -31.280278 -3.994887 2.184531 18.526428 0.911092 0.254278 2.155016 0.066538 0.390907 3.530487 0.116978 1.861898 16.123503 0.761978 0.489907 24.567459 -5.771251 1.863622 1.077780 -6.439410 3.800470 3.478168 -2.527454 18.173065 -16.356251 -5.621698 46.554876 -36.794934 -36.743835 -5.232032 -5.660042 -26.537838 -4.733272 7.669983 0.801040 -18.604242 -35.212257 8.556244 -40.520826 -23.782311 31.405987 -8.981800 7.789327 15.390505 3.841252 -42.720920 0.089340 -151.923831 70.269650 -145.498010 -2.419769 -30.676895 0.752021 -0.002342 -0.005161 -0.001063 -7.182699 -40.693209 6.333444 163.292578 73.251753 159.642739 -3.008214 -32.765947 0.972975 0.005274 -0.000363 0.002394
-0.533226 127.088026 27.308652 174.478810 -31.256202 -3.990206 2.190789 18.523230 0.904174 0.256253 2.150678 0.067603 0.392180 3.528294 0.115898 1.893821 16.125228 0.746057 0.467458 24.551987 -5.745981 1.889182 1.089108 -6.464459 3.803342 3.472941 -2.536576 18.137535 -16.342879 -5.584067 46.557650 -36.799261 -36.756901 -5.239114 -5.668455 -26.565372 -4.747640 7.673740 0.823909 -18.621135 -35.235082 8.558641 -40.509119 -23.775165 31.384553 -9.002416 7.762128 15.419692 3.847050 -42.738559 0.070054 -151.931707 70.265208 -145.499358 -2.418981 -30.684068 0.750142 -0.000825 -0.006306 -0.000375 -7.183924 -40.722904 6.301073 163.254664 73.245055 159.617003 -2.993123 -32.760830 0.959648 0.003855 -0.000685 0.001750
-0.532403 127.088100 27.304305 174.485156 -31.243982 -3.986515 2.203155 18.528062 0.903304 0.252296 2.145318 0.067275 0.397966 3.531096 0.115587 1.899204 16.123222 0.742968 0.505521 24.572534 -5.775454 1.875593 1.087992 -6.442434 3.801691 3.468567 -2.539995 18.124711 -16.336033 -5.572728 46.565571 -36.793048 -36.757740 -5.239877 -5.675195 -26.590183 -4.737198 7.682913 0.826341 -18.662484 -35.254227 8.577711 -40.498485 -23.763890 31.373448 -8.964967 7.716742 15.524897 3.856268 -42.743780 0.053208 -151.947549 70.261522 -145.507130 -2.419677 -30.693411 0.748124 -0.000059 -0.007984 -0.000027 -7.186935 -40.736924 6.276372 163.218600 73.242339 159.590184 -2.975435 -32.754655 0.944047 0.003273 -0.000880 0.001486
-0.532195 127.087970 27.301080 174.488389 -31.232136 -3.977617 2.217859 18.531966 0.899311 0.237017 2.133665 0.066599 0.412954 3.541682 0.117197 1.891680 16.115713 0.740393 0.527471 24.594867 -5.787730 1.890229 1.107502 -6.455921 3.797784 3.464611 -2.539862 18.129095 -16.320948 -5.570614 46.589467 -36.777041 -36.738354 -5.246088 -5.676692 -26.647397 -4.711266 7.702334 0.825231 -18.714309 -35.300226 8.578674 -40.481034 -23.716726 31.360709 -8.950315 7.690518 15.591250 3.874181 -42.752220 0.028965 -151.966415 70.259010 -145.517607 -2.420896 -30.696977 0.740908 0.000742 -0.010592 0.000337 -7.189914 -40.746396 6.252072 163.174453 73.243241 159.546446 -2.961550 -32.748532 0.930606 -0.000032 0.001082 -0.000014
-0.531861 127.087505 27.299319 174.496300 -31.218534 -3.971992 2.244026 18.545745 0.908211 0.219916 2.121254 0.061255 0.414134 3.540711 0.118874 1.883298 16.109341 0.736743 0.551527 24.624621 -5.799582 1.905586 1.136500 -6.472505 3.817913 3.473612 -2.554995 18.112275 -16.302176 -5.554291 46.598754 -36.792708 -36.770833 -5.248123 -5.677643 -26.659874 -4.682375 7.728874 0.829558 -18.826392 -35.369386 8.585460 -40.413690 -23.632699 31.350540 -8.933984 7.665745 15.658719 3.885630 -42.757974 0.003145 -151.990741 70.260370 -145.535545 -2.420549 -30.705300 0.740841 -0.000551 -0.010785 -0.000250 -7.191675 -40.755912 6.239760 163.160558 73.240572 159.535219 -2.970319 -32.749599 0.928609 0.000548 0.003043 0.000249
-0.531742 127.087076 27.298296 174.508112 -31.207362 -3.967112 2.247823 18.545621 0.906819 0.221290 2.124545 0.061506 0.404566 3.533856 0.116658 1.899254 16.116972 0.738875 0.562203 24.654138 -5.813036 1.920392 1.174090 -6.491655 3.825053 3.477659 -2.571562 18.097702 -16.285596 -5.531469 46.609048 -36.803968 -36.810155 -5.241513 -5.673594 -26.680854 -4.666894 7.755088 0.841758 -18.908366 -35.424856 8.597843 -40.355509 -23.582042 31.333147 -8.917932 7.638957 15.721498 3.896204 -42.757409 -0.024992 -152.015408 70.262052 -145.553508 -2.420502 -30.718850 0.742443 -0.002095 -0.008982 -0.000951 -7.193900 -40.763250 6.227432 163.155531 73.241994 159.529505 -2.969003 -32.746318 0.919681 0.000632 0.004469 0.000287
-0.531377 127.087386 27.296843 174.523527 -31.206165 -3.964856 2.251729 18.552811 0.908268 0.218428 2.128268 0.060643 0.396682 3.529023 0.114597 1.913933 16.125288 0.742435 0.574901 24.689964 -5.830152 1.935357 1.218967 -6.512755 3.833562 3.486695 -2.587558 18.089580 -16.279297 -5.516550 46.620721 -36.811832 -36.845174 -5.229129 -5.667207 -26.698190 -4.648625 7.786041 0.859562 -18.969363 -35.484582 8.599705 -40.300423 -23.534833 31.312974 -8.903029 7.610718 15.777856 3.910461 -42.738831 -0.052702 -152.055035 70.260298 -145.578905 -2.423938 -30.753143 0.744500 -0.001911 -0.004943 -0.000868 -7.197682 -40.761062 6.217323 163.127036 73.231374 159.493540 -2.984825 -32.751807 0.928156 -0.003625 0.002160 -0.001646
-0.530996 127.087145 27.297013 174.535065 -31.201558 -3.961311 2.255377 18.553535 0.909060 0.239745 2.138722 0.065765 0.380722 3.524444 0.109379 1.919863 16.129366 0.743314 0.586682 24.732536 -5.844381 1.951807 1.268766 -6.535821 3.837798 3.501355 -2.595331 18.084679 -16.275578 -5.510331 46.638792 -36.819622 -36.880020 -5.245104 -5.661527 -26.718536 -4.654214 7.795762 0.874156 -18.994533 -35.514342 8.599003 -40.243140 -23.497951 31.289484 -8.890801 7.583915 15.830029 3.911687 -42.738760 -0.068351 -152.073795 70.254372 -145.597143 -2.427147 -30.763530 0.745786 -0.000133 -0.007721 -0.000060 -7.197555 -40.759835 6.209629 163.134547 73.235998 159.500079 -2.990311 -32.754874 0.928439 -0.002928 0.001860 -0.001329
-0.530962 127.087443 27.296843 174.552556 -31.204792 -3.958751 2.242758 18.559573 0.901059 0.263869 2.149934 0.073299 0.374510 3.522855 0.108745 1.920882 16.135871 0.743593 0.602717 24.779214 -5.862217 1.968462 1.321449 -6.559779 3.882017 3.553912 -2.597441 18.037672 -16.309087 -5.524052 46.663156 -36.827521 -36.911634 -5.242383 -5.656218 -26.746744 -4.655854 7.803761 0.886115 -19.024531 -35.558280 8.576985 -40.179769 -23.437851 31.271196 -8.878745 7.559185 15.884879 3.912541 -42.724467 -0.092000 -152.099131 70.255549 -145.620051 -2.428827 -30.777978 0.745183 -0.000674 -0.008076 -0.000306 -7.176915 -40.744785 6.195711 163.133974 73.247212 159.509613 -3.000626 -32.759554 0.930102 0.003124 0.006144 0.001419
